<?xml version="1.0" encoding="UTF-8"?>
<svg version="1.1" id="Layer_2" xmlns="http://www.w3.org/2000/svg" xmlns:xlink="http://www.w3.org/1999/xlink" x="0px" y="0px" viewBox="0 0 194 139" enable-background="new 0 0 194 139" xml:space="preserve">
<g>
	<path fill="#FFC71D" d="M43.8,36.5h-2.5c-0.3-1.3-0.8-2.5-1.5-3.6l1.8-1.8c0.5-0.5,0.5-1.4,0-2l-2.9-2.9c-0.5-0.5-1.4-0.5-2,0 L34.9,28c-1.1-0.7-2.3-1.2-3.6-1.5V24c0-0.8-0.6-1.4-1.4-1.4h-4.2c-0.8,0-1.4,0.6-1.4,1.4v2.5c-1.3,0.3-2.5,0.8-3.6,1.5L19,26.2 c-0.5-0.5-1.4-0.5-2,0l-2.9,2.9c-0.5,0.5-0.5,1.4,0,2l1.8,1.8c-0.7,1.1-1.2,2.3-1.5,3.6h-2.5c-0.8,0-1.4,0.6-1.4,1.4V42 c0,0.8,0.6,1.4,1.4,1.4h2.5c0.3,1.3,0.8,2.5,1.5,3.6l-1.8,1.8c-0.5,0.5-0.5,1.4,0,2l2.9,2.9c0.5,0.5,1.4,0.5,2,0l1.8-1.8 c1.1,0.7,2.3,1.2,3.6,1.5v2.5c0,0.8,0.6,1.4,1.4,1.4h4.2c0.8,0,1.4-0.6,1.4-1.4v-2.5c1.3-0.3,2.5-0.8,3.6-1.5l1.8,1.8 c0.5,0.5,1.4,0.5,2,0l2.9-2.9c0.5-0.5,0.5-1.4,0-2L39.8,47c0.7-1.1,1.2-2.3,1.5-3.6h2.5c0.8,0,1.4-0.6,1.4-1.4v-4.2 C45.2,37.1,44.6,36.5,43.8,36.5z M27.8,51c-6.1,0-11.1-5-11.1-11.1s5-11.1,11.1-11.1c6.1,0,11.1,5,11.1,11.1S33.9,51,27.8,51z"/>
	<path fill="#FFC71D" d="M27.8,30.4c-5.3,0-9.6,4.3-9.6,9.6s4.3,9.6,9.6,9.6c5.3,0,9.6-4.3,9.6-9.6S33.1,30.4,27.8,30.4z M27.8,46.9 c-3.8,0-6.9-3.1-6.9-6.9S24,33,27.8,33s6.9,3.1,6.9,6.9S31.7,46.9,27.8,46.9z"/>
</g>
<g>
	<path fill="#FFC71D" d="M58,19.6h-1.6c-0.2-0.8-0.5-1.6-1-2.3l1.1-1.1c0.3-0.3,0.3-0.9,0-1.3l-1.9-1.9c-0.3-0.3-0.9-0.3-1.3,0 l-1.1,1.1c-0.7-0.4-1.5-0.7-2.3-0.9v-1.6c0-0.5-0.4-0.9-0.9-0.9h-2.7c-0.5,0-0.9,0.4-0.9,0.9v1.6c-0.8,0.2-1.6,0.5-2.3,0.9 l-1.1-1.1c-0.3-0.3-0.9-0.3-1.3,0L39.1,15c-0.3,0.3-0.3,0.9,0,1.3l1.1,1.1c-0.4,0.7-0.7,1.5-0.9,2.3h-1.6c-0.5,0-0.9,0.4-0.9,0.9 v2.7c0,0.5,0.4,0.9,0.9,0.9h1.6c0.2,0.8,0.5,1.6,0.9,2.3l-1.1,1.1c-0.3,0.3-0.3,0.9,0,1.3l1.9,1.9c0.3,0.3,0.9,0.3,1.3,0l1.1-1.1 c0.7,0.4,1.5,0.7,2.3,1V32c0,0.5,0.4,0.9,0.9,0.9h2.7c0.5,0,0.9-0.4,0.9-0.9v-1.6c0.8-0.2,1.6-0.5,2.3-0.9l1.1,1.1 c0.3,0.3,0.9,0.3,1.3,0l1.9-1.9c0.3-0.3,0.3-0.9,0-1.3l-1.1-1.1c0.4-0.7,0.7-1.5,1-2.3H58c0.5,0,0.9-0.4,0.9-0.9v-2.7 C58.9,20,58.5,19.6,58,19.6z M47.8,28.9c-3.9,0-7.1-3.2-7.1-7.1s3.2-7.1,7.1-7.1s7.1,3.2,7.1,7.1S51.7,28.9,47.8,28.9z"/>
	<path fill="#FFC71D" d="M47.8,15.8c-3.4,0-6.1,2.7-6.1,6.1c0,3.4,2.7,6.1,6.1,6.1s6.1-2.7,6.1-6.1C53.9,18.5,51.2,15.8,47.8,15.8z  M47.8,26.3c-2.4,0-4.4-2-4.4-4.4c0-2.4,2-4.4,4.4-4.4c2.4,0,4.4,2,4.4,4.4S50.3,26.3,47.8,26.3z"/>
</g>
<g>
	<path fill="#57585A" d="M100.1,106H78.2c0,0,0,17-10.4,17h19.4c0.3,0,0.5,0,0.5,0h22.7C100.1,122.9,100.1,106,100.1,106z"/>
</g>
<path fill="#003562" d="M149.5,100.4V26.4c0-1.3-1.1-2.4-2.4-2.4H32c-1.3,0-2.4,1.1-2.4,2.4v74.3"/>
<path fill="#929497" d="M29.6,97.8v11.3c0,1.3,1.1,2.4,2.4,2.4h115.1c1.3,0,2.4-1.1,2.4-2.4V97.7"/>
<path fill="#FFFFFF" d="M144.7,92.6H34.4V28.4h110.3L144.7,92.6L144.7,92.6z"/>
<rect x="63.1" y="122" fill="#929497" width="52" height="3.2"/>
<g>
	<rect x="43.1" y="71" fill="#FF812C" width="5" height="16.7"/>
</g>
<g>
	<rect x="50.5" y="67.7" fill="#FF812C" width="5" height="20"/>
</g>
<g>
	<rect x="57.8" y="63.7" fill="#FF812C" width="5" height="24"/>
</g>
<g>
	<rect x="65.1" y="67" fill="#FF812C" width="5" height="20.7"/>
</g>
<g>
	<rect x="72.5" y="71" fill="#FF812C" width="5" height="16.7"/>
</g>
<g>
	<rect x="79.8" y="67.2" fill="#FF812C" width="5" height="20.5"/>
</g>
<g>
	<rect x="87.1" y="62.8" fill="#FF812C" width="5" height="24.8"/>
</g>
<g>
	<rect x="94.5" y="71" fill="#FF812C" width="5" height="16.7"/>
</g>
<g>
	<rect x="101.8" y="66.5" fill="#FF812C" width="5" height="21.1"/>
</g>
<g>
	<rect x="109.1" y="58.9" fill="#FF812C" width="5" height="28.7"/>
</g>
<g>
	<rect x="116.5" y="52.7" fill="#FF812C" width="5" height="35"/>
</g>
<g>
	<rect x="123.8" y="46.3" fill="#FF812C" width="5" height="41.3"/>
</g>
<g>
	<rect x="131.1" y="42.3" fill="#FF812C" width="5" height="45.3"/>
</g>
<g>
	<circle fill="#FFFFFF" cx="142.4" cy="64.1" r="14.4"/>
	<path fill="#003562" d="M142.4,80.5c-9,0-16.4-7.4-16.4-16.4s7.4-16.4,16.4-16.4s16.4,7.4,16.4,16.4S151.4,80.5,142.4,80.5z  M142.4,51.7c-6.8,0-12.4,5.6-12.4,12.4c0,6.8,5.6,12.4,12.4,12.4c6.8,0,12.4-5.6,12.4-12.4C154.8,57.3,149.2,51.7,142.4,51.7z"/>
</g>
<circle opacity="0.23" fill="#01AEF0" enable-background="new    " cx="142.4" cy="64.1" r="12.4"/>
<g>
	<path fill="#FF812C" d="M138.9,76c1.1,0.3,2.3,0.5,3.5,0.5c1.6,0,3.1-0.3,4.5-0.8V52.5c-1.4-0.5-2.9-0.8-4.5-0.8 c-1.2,0-2.4,0.2-3.5,0.5V76z"/>
	<path fill="#FF812C" d="M135.8,53.6c-3.5,2.2-5.8,6.1-5.8,10.5c0,4.4,2.3,8.3,5.8,10.5V53.6z"/>
</g>
<line fill="none" stroke="#003562" stroke-width="3" x1="153.5" y1="74" x2="158.3" y2="78.8"/>
<g>
	<path fill="#C75601" d="M182.7,107.1c-1.2,0-2.3-0.4-3.2-1.3l-21.2-21.2c-1.8-1.8-1.8-4.6,0-6.4c1.8-1.8,4.6-1.8,6.4,0l21.2,21.2 c1.8,1.8,1.8,4.6,0,6.4C185,106.7,183.8,107.1,182.7,107.1z"/>
</g>
<g>
	<path fill="#FF812C" d="M182.3,105.4c-0.4,0-0.8-0.1-1.1-0.4L159.4,83c-0.6-0.6-0.6-1.5,0-2.1s1.5-0.6,2.1,0l21.9,21.9 c0.6,0.6,0.6,1.5,0,2.1C183.1,105.2,182.7,105.4,182.3,105.4z"/>
</g>
<path fill="#003562" d="M50.8,81.5H38H28H15.2c-0.7,0-1.2,0.5-1.2,1.2v44.1c0,0.7,0.5,1.2,1.2,1.2H28h10h12.8c0.7,0,1.2-0.5,1.2-1.2  V82.7C52,82.1,51.4,81.5,50.8,81.5z"/>
<path fill="#FFFFFF" d="M17.3,124.4V85h31.6v39.4H17.3z"/>
<g>
	<rect x="36.4" y="114" transform="matrix(0.7071 0.7071 -0.7071 0.7071 92.3757 5.485)" fill="#003562" width="6.4" height="0.5"/>
</g>
<g>
	<polygon fill="#01AEF0" points="42.7,66.6 42.2,65.7 61.5,54.6 73.9,61.6 86.3,51 98.2,60.3 124.6,34.3 125.3,35 98.2,61.6  86.4,52.3 74,62.8 61.5,55.7  "/>
</g>
<circle fill="#FFC81D" cx="124.9" cy="34.7" r="2.8"/>
<circle fill="#FFC81D" cx="98.4" cy="60.3" r="2.8"/>
<circle fill="#FFC81D" cx="86.3" cy="51.7" r="2.8"/>
<circle fill="#FFC81D" cx="73.6" cy="61.1" r="2.8"/>
<circle fill="#FFC81D" cx="61.6" cy="55.6" r="2.8"/>
<circle fill="#FFC81D" cx="42.5" cy="66.2" r="2.8"/>
<g>
	<rect x="41.9" y="35.7" fill="#FF812C" width="23.5" height="2"/>
</g>
<g>
	<rect x="41.9" y="40.2" fill="#01AEF0" width="35.5" height="1"/>
</g>
<g>
	<rect x="41.9" y="42.7" fill="#01AEF0" width="31" height="1"/>
</g>
<g>
	<rect x="41.9" y="45.2" fill="#01AEF0" width="27.5" height="1"/>
</g>
<g>
	<rect x="41.9" y="47.7" fill="#01AEF0" width="9" height="1"/>
</g>
<polygon fill="#003562" points="26.8,96.2 26.8,96.2 26.8,91.6 26.3,91.6 26.3,96.3 28.1,98.7 28.4,98.4 "/>
<g>
	<rect x="41.9" y="51" fill="#FF812C" width="6" height="3"/>
</g>
<g>
	<path fill="#01AEF0" d="M32,101.1v-4.7c-2.8,0.3-5.2,2-6.5,4.3l4.5,1.7C30.5,101.8,31.2,101.3,32,101.1z"/>
	<path fill="#639600" d="M36.8,103.7h4.8c-0.6-3.9-3.7-6.9-7.6-7.3v4.7C35.3,101.5,36.3,102.4,36.8,103.7z"/>
	<path fill="#003562" d="M29,105c0-0.3,0-0.5,0.1-0.8l-4.4-1.7c-0.2,0.8-0.4,1.6-0.4,2.4c0,1.8,0.5,3.4,1.4,4.8l3.8-2.7 C29.2,106.5,29,105.8,29,105z"/>
	<path fill="#FF812C" d="M36.9,105.7c-0.3,1.9-2,3.3-3.9,3.3c-0.7,0-1.3-0.2-1.9-0.5l-4,2.8c1.6,1.5,3.6,2.4,5.9,2.4 c4.5,0,8.3-3.5,8.6-7.9H36.9z"/>
</g>
<g>
	<rect x="33.3" y="117.8" fill="#003562" width="9" height="0.5"/>
</g>
<g>
	<rect x="33.3" y="118.8" fill="#003562" width="9.8" height="0.5"/>
</g>
<g>
	<rect x="33.3" y="119.8" fill="#003562" width="7.4" height="0.5"/>
</g>
<g>
	<rect x="33.3" y="120.8" fill="#003562" width="6.7" height="0.5"/>
</g>
<g>
	<g> <rect x="27.6" y="91.8" fill="#003562" width="9.6" height="0.5"/>
	</g>
	<g> <rect x="27.6" y="92.8" fill="#003562" width="8.4" height="0.5"/>
	</g>
	<g> <rect x="27.6" y="93.8" fill="#003562" width="5.4" height="0.5"/>
	</g>
</g>
</svg>