<?xml version="1.0" encoding="utf-8"?>
<!-- Generator: Adobe Illustrator 19.0.0, SVG Export Plug-In . SVG Version: 6.00 Build 0)  -->
<svg version="1.1" id="Camada_1" xmlns="http://www.w3.org/2000/svg" xmlns:xlink="http://www.w3.org/1999/xlink" x="0px" y="0px"
	 viewBox="0 0 774 255" style="enable-background:new 0 0 774 255;" xml:space="preserve">
<style type="text/css">
	.st0{fill:#CBCBCB;}
	.st1{fill:#DFDFDF;}
	.st2{fill:#4E4E4E;}
	.st3{fill:#FBFBFA;}
	.st4{fill:#F1F1F1;}
	.st5{fill:#C83DD3;}
	.st6{fill:#E6B2ED;}
	.st7{fill:#474747;stroke:#474747;stroke-width:1.7462;stroke-miterlimit:10;}
</style>
<g>
	<g>
		<path class="st0" d="M127,21c15.5-0.4,30.5,2.3,44.8,8.3c10.2,4.2,19.5,10,27.9,17.1c11.8,9.9,20.9,21.9,27.3,35.9
			c3.9,8.4,6.5,17.2,7.8,26.3c1.3,8.6,1,17.3,0.5,25.9c-0.6,10.3-3.6,20.2-7.8,29.6c-4,9-9.2,17.2-15.5,24.7
			c-5.7,6.7-12.2,12.7-19.4,17.8c-8.5,6.1-17.8,10.8-27.7,14.1c-7.2,2.5-14.7,4.1-22.3,5c-5.2,0.6-10.4,0.7-15.6,0.6
			c0-11.1,0-22.3,0-33.4c5.6,0,11.1-0.2,16.6-1.4c18.7-4,33.6-13.7,44.6-29.4c4.2-6,7.1-12.5,9.1-19.5c2.2-0.3,4.5-0.5,6.7-0.8
			c4.8-0.6,9.6-1.2,14.4-1.9c1.4-0.2,3,0.1,4-1.4c2-3.2,4-6.3,6.1-9.4c0.5-0.8,0.4-1.4,0-2.2c-2-3.2-4-6.4-5.9-9.5
			c-0.5-0.7-1-1.2-2-1.4c-1.9-0.3-3.8-0.8-5.6-1.2c-5.4-1.2-10.8-2.3-16.2-3.5c-0.7-2.4-1.3-4.9-2.2-7.3
			c-3.8-11.2-10-20.9-18.8-28.9c-7.4-6.8-15.8-11.8-25.3-15c-8.2-2.8-16.7-4-25.4-3.8C127,44.4,127,32.7,127,21z"/>
		<path class="st1" d="M127,21c0,11.7,0,23.4,0,35.1c-4.5,0-9,0.7-13.5,1.6c-8.7,1.8-16.8,5.2-24.2,10.1c-5.6,3.7-10.7,8.1-15,13.2
			c-4.7,5.6-8.5,11.8-11.3,18.6c-2.7,6.8-4.4,13.8-4.7,21.1c-0.2,4.5-0.1,8.9,0.6,13.4c0.9,6.1,2.6,12,5.1,17.5
			c4.1,9,9.7,16.9,17.3,23.3c3.8,3.3,7.9,6.3,12.3,8.7c10.4,5.7,21.4,8.9,33.3,9c0,11.1,0,22.3,0,33.4c-1.6,0-3.2,0-4.8,0
			c-3.1-3-6.1-5.9-9.2-8.9c-17.3-17.1-34.5-34.2-51.8-51.2c-0.8-0.8-1.2-1.4-0.5-2.6c0.8-1.6,1.2-3.3,1.2-5.1
			c-0.1-12.7-5.7-22.8-15-31.1c-2.9-2.6-6.6-3.7-10.6-3.3c-5.2,0.5-9.1,3.1-11.8,7.6c-0.9-1.5-0.7-3.2-0.7-4.7
			c-0.3-12.2,1.4-24.1,5.4-35.6c4-11.7,10.1-22.3,18-31.8c8.7-10.5,19-18.9,31-25.4c10.9-5.9,22.4-9.9,34.6-11.8
			C117.3,21.6,122.1,21,127,21z"/>
		<path class="st2" d="M24.3,131.7c2.7-4.5,6.6-7.1,11.8-7.6c4-0.4,7.7,0.7,10.6,3.3c9.3,8.2,14.9,18.4,15,31.1
			c0,1.8-0.3,3.6-1.2,5.1c-0.6,1.2-0.3,1.8,0.5,2.6c17.3,17.1,34.6,34.2,51.8,51.2c3,3,6.1,5.9,9.2,8.9c0.4,0.5,0.1,0.9-0.3,1.3
			c-1.7,2-3.4,4-5.1,6c-0.7,0.9-1.1,0.6-1.7-0.1c-2.9-3.2-5.9-6.4-8.9-9.6c-0.3-0.4-0.5-0.7-0.8-1.1c-16.1-17.6-32.2-35.3-48.2-52.9
			c-0.8-0.9-1.5-1.5-2.8-0.8c-0.9,0.5-1.9,0.3-2.9,0.3c-4.3-0.2-8.1-2-11.8-4c-3.3-1.8-6.2-4.1-9.3-6.3c-2.1-2.2-4.3-4.4-5.7-7.1
			C21.1,145.2,21.2,138.4,24.3,131.7z"/>
		<path class="st1" d="M30.4,159c3.1,2.2,6,4.5,9.3,6.3c3.7,2,7.5,3.9,11.8,4c1,0,2,0.2,2.9-0.3c1.3-0.7,2-0.1,2.8,0.8
			c16.1,17.7,32.1,35.3,48.2,52.9c0.3,0.3,0.6,0.7,0.8,1.1c-5.5-1-10.8-2.7-15.9-4.7c-9.9-3.8-19.1-9.1-27.4-15.6
			c-10.5-8.3-19.2-18.2-25.9-29.9c-2.2-3.8-4.2-7.8-5.9-11.9C30.7,160.9,30.3,160,30.4,159z"/>
		<path class="st3" d="M127,192.8c-11.9-0.2-22.9-3.3-33.3-9c-4.4-2.4-8.5-5.4-12.3-8.7c-7.5-6.5-13.2-14.4-17.3-23.3
			c-2.6-5.6-4.2-11.5-5.1-17.5c-0.7-4.5-0.8-8.9-0.6-13.4c0.3-7.3,2-14.3,4.7-21.1c2.8-6.8,6.5-13,11.3-18.6
			c4.3-5.1,9.4-9.6,15-13.2c7.4-4.9,15.5-8.2,24.2-10.1c4.4-0.9,8.9-1.6,13.5-1.6c8.7-0.2,17.2,1,25.4,3.8c9.5,3.2,17.9,8.2,25.3,15
			c8.8,8,15,17.7,18.8,28.9c0.8,2.4,1.4,4.9,2.2,7.3c0.2,2.4,0.5,4.7,0.7,7.1c0.6,5.1,0.4,10.2-0.2,15.2c-0.4,3.1-1.2,6.1-1.9,9.1
			c-2.1,7-5,13.5-9.1,19.5c-11,15.7-25.9,25.4-44.6,29.4C138.1,192.6,132.6,192.9,127,192.8z M127.7,184.6c4.1,0.2,8.2-0.1,12.2-0.8
			c16-2.9,29.3-10.6,39.2-23.6c10.4-13.8,14.2-29.3,11.1-46.3c-2.5-14-9.4-25.5-20.3-34.6c-12.2-10.3-26.4-15.2-42.3-14.8
			c-3.8-0.2-7.6,0.3-11.3,1.1C101.1,68.7,88.5,76.3,79,88.7c-10.6,13.8-14.3,29.4-11.3,46.4c2.7,15.3,10.7,27.6,23.1,36.9
			C101.7,180.2,114,184.6,127.7,184.6z"/>
		<path class="st4" d="M197.3,142.6c0.7-3,1.5-6,1.9-9.1c0.6-5.1,0.8-10.1,0.2-15.2c-0.3-2.4-0.5-4.7-0.7-7.1
			c5.4,1.2,10.8,2.3,16.2,3.5c1.9,0.4,3.7,0.9,5.6,1.2c1,0.2,1.5,0.6,2,1.4c2,3.2,3.9,6.4,5.9,9.5c0.5,0.8,0.6,1.4,0,2.2
			c-2.1,3.1-4.1,6.3-6.1,9.4c-1,1.5-2.6,1.2-4,1.4c-4.8,0.7-9.6,1.3-14.4,1.9C201.8,142,199.6,142.3,197.3,142.6z"/>
		<path class="st5" d="M127.7,64.4c16-0.3,30.1,4.6,42.3,14.8c10.8,9.1,17.7,20.6,20.3,34.6c3.1,17-0.7,32.6-11.1,46.3
			c-9.9,13-23.2,20.7-39.2,23.6c-4,0.7-8.1,1-12.2,0.8C127.7,144.5,127.7,104.5,127.7,64.4z"/>
		<path class="st6" d="M127.7,64.4c0,40.1,0,80.1,0,120.2c-13.7,0-26-4.4-36.9-12.6c-12.4-9.3-20.4-21.6-23.1-36.9
			c-3-17,0.7-32.6,11.3-46.4c9.5-12.4,22.2-20,37.4-23.2C120.1,64.7,123.9,64.2,127.7,64.4z"/>
	</g>
	<g>
		<path class="st7" d="M281.7,164.4v-72h-25.4v-1.7h52.3v1.7h-25.4v72H281.7z"/>
		<path class="st7" d="M316.6,162.5h39v1.6h-40.4h-0.2V90.9h40.4v1.6h-38.8v34.2h37.9v1.7h-37.9V162.5z"/>
		<path class="st7" d="M406.3,139.5h-37.1l-10,24.6h-1.8L387,89.7h1.8l29.4,74.4h-1.8L406.3,139.5z M370,137.9h35.7l-17.9-46
			L370,137.9z"/>
		<path class="st7" d="M468.4,106.2c-0.6-3-1.9-5.7-4-8c-4.5-4.8-11.7-6.8-18.3-6.7c-6.9,0.1-14.8,2.6-19.2,8.4
			c-2.6,3.2-3.6,7.1-3.2,11.2c1.9,25.7,43.1,5.6,48.1,29c3.4,15.5-11.4,24.7-25.4,24.7c-10.7,0-23.7-6.1-24.9-17.9l-0.1-0.7l1.7-0.2
			l0.1,0.7c1.2,11,13.4,16.6,23.4,16.6c12.8,0,26.6-8.3,23.6-22.8c-4.7-21.8-46.1-1.9-48-29.2c-0.4-4.4,0.7-8.7,3.5-12.3
			c10.7-13.8,40.9-12,44.4,6.9l0.1,0.8l-1.6,0.3L468.4,106.2z"/>
		<path class="st7" d="M481.1,90.8h0.8h24.5c29.3,0,29.3,45.5,0,45.5h-23.7v27.9h-1.7c0-24.2,0-48.3,0-72.5V90.8z M506.5,134.7
			c27.2,0,27.2-42.2,0-42.2h-23.7v42.2H506.5z"/>
		<path class="st7" d="M543.1,100.8c6.7-6.9,16.1-11.1,26.4-11.1c10.4,0,19.7,4.2,26.5,11.1c6.7,6.8,11,16.2,11,26.6
			c0,10.4-4.3,19.8-11,26.6c-6.8,6.9-16.1,11.1-26.5,11.1c-10.3,0-19.7-4.2-26.4-11.1c-6.7-6.8-11-16.2-11-26.6
			C532.1,117.1,536.4,107.6,543.1,100.8z M594.8,102.1c-6.5-6.6-15.5-10.7-25.4-10.7c-9.8,0-18.8,4.1-25.2,10.7
			c-6.4,6.5-10.5,15.4-10.5,25.4s4.1,18.9,10.5,25.4c6.5,6.6,15.4,10.7,25.2,10.7c9.8,0,18.9-4.1,25.4-10.7
			c6.4-6.5,10.4-15.4,10.4-25.4S601.2,108.6,594.8,102.1z"/>
		<path class="st7" d="M623.7,100.8c6.7-6.9,16.1-11.1,26.4-11.1c10.4,0,19.7,4.2,26.5,11.1c6.7,6.8,11,16.2,11,26.6
			c0,10.4-4.3,19.8-11,26.6c-6.8,6.9-16.1,11.1-26.5,11.1c-10.3,0-19.7-4.2-26.4-11.1c-6.7-6.8-11-16.2-11-26.6
			C612.7,117.1,617,107.6,623.7,100.8z M675.5,102.1c-6.5-6.6-15.5-10.7-25.4-10.7c-9.8,0-18.8,4.1-25.2,10.7
			c-6.4,6.5-10.5,15.4-10.5,25.4s4.1,18.9,10.5,25.4c6.5,6.6,15.4,10.7,25.2,10.7c9.8,0,18.9-4.1,25.4-10.7
			c6.4-6.5,10.4-15.4,10.4-25.4S681.9,108.6,675.5,102.1z"/>
		<path class="st7" d="M695.3,164.1V90.7l1.5,0.1l48.7,70.4V90.8h1.6v73.3h-1.7l-48.4-70v70H695.3z"/>
	</g>
</g>
</svg>
